<svg width="284" height="63" viewBox="0 0 284 63" fill="none" xmlns="http://www.w3.org/2000/svg">
<path fill-rule="evenodd" clip-rule="evenodd" d="M105.807 19.6733V62H121.58V19.6733H132.5V7.30667H94.8867V19.6733H105.807ZM156.845 58.36L157.312 57.8467L158.805 62H171.592L170.285 58.36V39.3667C170.285 35.9444 170.021 33.1289 169.492 30.92C168.963 28.68 168.061 26.8444 166.785 25.4133C165.541 23.9511 163.907 22.9244 161.885 22.3333C159.863 21.7111 157.296 21.4 154.185 21.4C150.669 21.4 147.216 21.9289 143.825 22.9867C140.434 24.0133 137.681 25.2111 135.565 26.58L138.552 32.9267C139.734 32.3044 141.367 31.7756 143.452 31.34C145.536 30.8733 147.543 30.64 149.472 30.64C151.712 30.64 153.329 31.0289 154.325 31.8067C155.352 32.5844 155.865 33.9222 155.865 35.82V36.66C154.807 36.66 153.703 36.7067 152.552 36.8C151.401 36.8933 150.094 37.08 148.632 37.36C147.169 37.64 145.77 37.9978 144.432 38.4333C143.125 38.8378 141.818 39.4133 140.512 40.16C139.205 40.8756 138.085 41.7 137.152 42.6333C136.218 43.5667 135.456 44.7178 134.865 46.0867C134.274 47.4244 133.978 48.9022 133.978 50.52C133.978 58.8267 138.178 62.98 146.578 62.98C147.823 62.98 149.036 62.7933 150.218 62.42C151.401 62.0778 152.396 61.6578 153.205 61.16C154.045 60.6622 154.776 60.1644 155.398 59.6667C156.052 59.1689 156.534 58.7333 156.845 58.36ZM154.745 54.5333C154.403 54.6889 154.029 54.7667 153.625 54.7667C150.981 54.7667 149.658 52.8222 149.658 48.9333C149.658 46.7556 150.218 45.1533 151.338 44.1267C152.458 43.0689 153.967 42.54 155.865 42.54V53.74L155.585 54.02C155.398 54.1756 155.118 54.3467 154.745 54.5333ZM179.66 61.5333C182.647 62.4978 185.602 62.98 188.527 62.98C200.567 62.98 206.587 58.1889 206.587 48.6067C206.587 45.3089 205.762 42.5556 204.113 40.3467C202.464 38.1378 199.82 36.4267 196.18 35.2133C195.527 35.0267 194.749 34.8244 193.847 34.6067C192.944 34.3578 192.244 34.1711 191.747 34.0467C191.249 33.8911 190.736 33.7044 190.207 33.4867C189.709 33.2378 189.351 32.9578 189.133 32.6467C188.915 32.3044 188.807 31.8844 188.807 31.3867C188.807 29.6444 190.284 28.7733 193.24 28.7733C196.849 28.7733 199.68 29.7844 201.733 31.8067L203.787 25.1333L202.947 24.34C200.427 22.38 196.507 21.4 191.187 21.4C188.076 21.4 185.26 21.8511 182.74 22.7533C180.22 23.6556 178.151 25.1178 176.533 27.14C174.915 29.1311 174.107 31.5267 174.107 34.3267C174.107 41.1711 177.731 45.6822 184.98 47.86C187.78 48.7 189.802 49.4467 191.047 50.1C192.291 50.7222 192.913 51.4378 192.913 52.2467C192.913 53.0867 192.555 53.74 191.84 54.2067C191.156 54.6733 189.88 54.9067 188.013 54.9067C185.431 54.9067 182.896 54.5333 180.407 53.7867C177.949 53.04 176.191 52.1533 175.133 51.1267L173.92 58.64C174.76 59.5733 176.673 60.5378 179.66 61.5333ZM226.063 42.9133L233.296 62H251.496L238.99 40.6733L251.216 22.3333H233.716L226.063 42.9133ZM209.916 9.22V62H225.13V0.866667H222.096L207.116 3.2V7.54L209.916 9.22ZM256.633 61.5333C259.619 62.4978 262.575 62.98 265.499 62.98C277.539 62.98 283.559 58.1889 283.559 48.6067C283.559 45.3089 282.735 42.5556 281.086 40.3467C279.437 38.1378 276.793 36.4267 273.153 35.2133C272.499 35.0267 271.721 34.8244 270.819 34.6067C269.917 34.3578 269.217 34.1711 268.719 34.0467C268.221 33.8911 267.708 33.7044 267.179 33.4867C266.681 33.2378 266.324 32.9578 266.106 32.6467C265.888 32.3044 265.779 31.8844 265.779 31.3867C265.779 29.6444 267.257 28.7733 270.213 28.7733C273.822 28.7733 276.653 29.7844 278.706 31.8067L280.759 25.1333L279.919 24.34C277.399 22.38 273.479 21.4 268.159 21.4C265.048 21.4 262.233 21.8511 259.713 22.7533C257.193 23.6556 255.124 25.1178 253.506 27.14C251.888 29.1311 251.079 31.5267 251.079 34.3267C251.079 41.1711 254.704 45.6822 261.953 47.86C264.753 48.7 266.775 49.4467 268.019 50.1C269.264 50.7222 269.886 51.4378 269.886 52.2467C269.886 53.0867 269.528 53.74 268.813 54.2067C268.128 54.6733 266.853 54.9067 264.986 54.9067C262.404 54.9067 259.868 54.5333 257.379 53.7867C254.921 53.04 253.164 52.1533 252.106 51.1267L250.893 58.64C251.733 59.5733 253.646 60.5378 256.633 61.5333ZM3 4C1.34314 4 0 5.34314 0 7V59C0 60.6569 1.34314 62 3 62H33C34.6569 62 36 60.6569 36 59V7C36 5.34314 34.6569 4 33 4H3ZM9 10C7.34314 10 6 11.3431 6 13V53C6 54.6569 7.34314 56 9 56H27C28.6569 56 30 54.6569 30 53V13C30 11.3431 28.6569 10 27 10H9ZM6 7C6 8.10457 5.10458 9 4 9C2.89542 9 2 8.10457 2 7C2 5.89543 2.89542 5 4 5C5.10458 5 6 5.89543 6 7ZM14 9C15.1046 9 16 8.10457 16 7C16 5.89543 15.1046 5 14 5C12.8954 5 12 5.89543 12 7C12 8.10457 12.8954 9 14 9ZM11 7C11 8.10457 10.1046 9 9 9C7.89542 9 7 8.10457 7 7C7 5.89543 7.89542 5 9 5C10.1046 5 11 5.89543 11 7ZM39 4H46V55.5556H50V62H46H42H39V4ZM54 7C54 5.34314 55.3431 4 57 4H87C88.6569 4 90 5.34314 90 7V59C90 60.6569 88.6569 62 87 62H57C55.3431 62 54 60.6569 54 59V7ZM60 13C60 11.3431 61.3431 10 63 10H81C82.6569 10 84 11.3431 84 13V53C84 54.6569 82.6569 56 81 56H63C61.3431 56 60 54.6569 60 53V13ZM58 9C59.1046 9 60 8.10457 60 7C60 5.89543 59.1046 5 58 5C56.8954 5 56 5.89543 56 7C56 8.10457 56.8954 9 58 9ZM70 7C70 8.10457 69.1046 9 68 9C66.8954 9 66 8.10457 66 7C66 5.89543 66.8954 5 68 5C69.1046 5 70 5.89543 70 7ZM63 9C64.1046 9 65 8.10457 65 7C65 5.89543 64.1046 5 63 5C61.8954 5 61 5.89543 61 7C61 8.10457 61.8954 9 63 9Z" fill="#129CBA"/>
</svg>
