<?xml version="1.0" standalone="no"?>
<!DOCTYPE svg PUBLIC "-//W3C//DTD SVG 20010904//EN"
 "http://www.w3.org/TR/2001/REC-SVG-20010904/DTD/svg10.dtd">
<svg version="1.0" xmlns="http://www.w3.org/2000/svg"
 width="280.000000pt" height="280.000000pt" viewBox="0 0 280.000000 280.000000"
 preserveAspectRatio="xMidYMid meet">
<metadata>
Created by potrace 1.14, written by Peter Selinger 2001-2017
</metadata>
<g transform="translate(0.000000,280.000000) scale(0.100000,-0.100000)"
fill="#000000" stroke="none">
<path d="M58 2543 c-61 -38 -58 18 -58 -1143 0 -1178 -4 -1112 65 -1145 30
-14 90 -15 504 -13 l469 3 26 24 c14 13 30 38 36 55 6 20 9 402 7 1098 l-2
1068 -33 32 -32 33 -478 2 c-436 3 -479 1 -504 -14z m94 -35 c27 -22 36 -49
27 -87 -14 -63 -63 -80 -99 -34 -48 62 14 167 72 121z m166 -13 c42 -53 4
-145 -53 -131 -35 9 -59 64 -44 103 20 56 65 69 97 28z m152 5 c41 -41 13
-141 -38 -140 -37 1 -57 29 -57 80 0 37 5 53 20 64 27 21 51 20 75 -4z m393
-199 c63 -41 59 18 60 -895 0 -755 -2 -834 -17 -864 -31 -59 -45 -62 -351 -62
-301 0 -314 2 -351 57 -17 27 -18 66 -19 848 -1 587 2 830 10 855 7 20 26 44
45 58 32 22 39 22 314 22 257 0 283 -2 309 -19z"/>
<path d="M1230 1400 l0 -1160 170 0 170 0 0 130 0 130 -53 -2 c-29 -1 -57 1
-62 4 -7 4 -10 367 -9 1032 l0 1026 -108 0 -108 0 0 -1160z"/>
<path d="M1749 2537 c-18 -12 -39 -34 -46 -47 -10 -19 -12 -267 -10 -1102 l2
-1078 33 -32 32 -33 470 -3 c523 -3 523 -3 553 61 16 32 17 125 17 1102 0 988
-1 1069 -17 1096 -35 59 -37 59 -541 59 l-459 0 -34 -23z m106 -37 c28 -31 25
-97 -5 -122 -34 -28 -62 -19 -84 25 -15 32 -16 42 -6 68 21 50 64 63 95 29z
m155 -7 c38 -49 12 -132 -42 -133 -53 -1 -78 94 -38 138 28 30 54 28 80 -5z
m142 15 c27 -22 36 -49 27 -87 -20 -90 -114 -74 -114 19 0 62 47 99 87 68z
m404 -207 c62 -38 59 1 58 -902 0 -591 -4 -832 -12 -851 -6 -16 -26 -37 -44
-48 -31 -19 -51 -20 -306 -20 -304 0 -328 4 -358 61 -15 30 -16 104 -17 860
l0 827 22 35 c12 20 34 40 49 46 15 5 147 10 302 10 252 1 278 -1 306 -18z"/>
</g>
</svg>
